<svg width="33" height="29" viewBox="0 0 33 29" fill="none" xmlns="http://www.w3.org/2000/svg">
<path d="M26.625 0V3H27.625C30.314 3 32.507 5.122 32.62 7.783L32.625 8V11H31.625V22C31.625 22.513 31.239 22.936 30.742 22.993L30.625 23H26.625V29H24.625V27H19.625V29H17.625V23H12.09C12.399 23.534 12.588 24.147 12.62 24.8L12.625 25C12.625 27.209 10.834 29 8.625 29C6.416 29 4.625 27.209 4.625 25C4.625 24.271 4.82 23.588 5.16 23H2.625C2.112 23 1.689 22.614 1.632 22.117L1.625 22V11H0.625V8C0.625 5.311 2.747 3.118 5.408 3.005L5.625 3H24.625V0H26.625ZM8.625 23C7.52 23 6.625 23.895 6.625 25C6.625 26.105 7.52 27 8.625 27C9.73 27 10.625 26.105 10.625 25C10.625 23.895 9.73 23 8.625 23ZM24.625 23H19.625V25H24.625V23ZM17.625 11H3.624V21H17.625V11ZM24.624 19H19.624V21H24.624V19ZM29.624 11H26.625V21H29.624V11ZM24.624 11H19.624V17H24.624V11ZM27.625 5H5.625C4.027 5 2.721 6.249 2.63 7.824L2.625 8L2.624 9H30.624L30.625 8C30.625 6.461 29.467 5.193 27.975 5.02L27.801 5.005L27.625 5Z" fill="#3C3C3C"/>
</svg>
