<svg width="26" height="29" viewBox="0 0 26 29" fill="none" xmlns="http://www.w3.org/2000/svg">
<path d="M24 0.5C25.054 0.5 25.918 1.316 25.995 2.351L26 2.5V26.5C26 27.554 25.184 28.418 24.149 28.494L24 28.5H2C0.946 28.5 0.0819998 27.684 0.00500011 26.649L0 26.5V2.5C0 1.446 0.816 0.582 1.851 0.505L2 0.5H24ZM24 2.5H2V26.5H8V13.5C8 10.739 10.239 8.5 13 8.5C15.689 8.5 17.882 10.622 17.995 13.283L18 13.5V26.5H24V2.5ZM16 24.5H10V26.5H16V24.5ZM16 20.5H10V22.5H16V20.5ZM13 10.5C11.402 10.5 10.096 11.749 10.005 13.324L10 13.5V18.5H16V13.5C16 11.843 14.657 10.5 13 10.5ZM13 4.5C13.552 4.5 14 4.948 14 5.5C14 6.052 13.552 6.5 13 6.5C12.448 6.5 12 6.052 12 5.5C12 4.948 12.448 4.5 13 4.5Z" fill="#3C3C3C"/>
</svg>
