<svg width="28" height="29" viewBox="0 0 28 29" fill="none" xmlns="http://www.w3.org/2000/svg">
<path d="M2 5.5H10V2.5C10.001 1.97 10.212 1.461 10.587 1.086C10.961 0.712 11.47 0.501 12 0.5H26C26.53 0.501 27.039 0.711 27.414 1.086C27.789 1.461 27.999 1.97 28 2.5V26.5C27.999 27.03 27.788 27.539 27.414 27.913C27.039 28.288 26.53 28.499 26 28.5H2C1.47 28.499 0.962 28.288 0.587 27.913C0.212 27.538 0.000999451 27.03 0 26.5V7.5C0.000999451 6.97 0.212 6.461 0.587 6.086C0.961 5.712 1.47 5.501 2 5.5ZM17 26.5H21V21.5H17V26.5ZM12 26.5H15V21.5C15.001 20.97 15.212 20.461 15.587 20.087C15.961 19.712 16.47 19.501 17 19.5H21C21.53 19.501 22.039 19.712 22.414 20.087C22.788 20.461 22.999 20.97 23 21.5V26.5H26L26.001 2.5H12V26.5ZM2 26.5H10V7.5H2V26.5ZM15 14.5C15 14.698 15.059 14.891 15.169 15.056C15.278 15.22 15.435 15.348 15.617 15.424C15.8 15.5 16.001 15.519 16.195 15.481C16.389 15.442 16.567 15.347 16.707 15.207C16.847 15.067 16.942 14.889 16.981 14.695C17.019 14.501 17 14.3 16.924 14.117C16.848 13.935 16.72 13.778 16.556 13.669C16.391 13.559 16.198 13.5 16 13.5C15.735 13.5 15.48 13.605 15.293 13.793C15.105 13.98 15 14.235 15 14.5ZM15 10.5C15 10.698 15.059 10.891 15.169 11.056C15.278 11.22 15.435 11.348 15.617 11.424C15.8 11.5 16.001 11.519 16.195 11.481C16.389 11.442 16.567 11.347 16.707 11.207C16.847 11.067 16.942 10.889 16.981 10.695C17.019 10.501 17 10.3 16.924 10.117C16.848 9.935 16.72 9.778 16.556 9.669C16.391 9.559 16.198 9.5 16 9.5C15.735 9.5 15.48 9.605 15.293 9.793C15.105 9.98 15 10.235 15 10.5ZM15 6.5C15 6.698 15.059 6.891 15.169 7.056C15.278 7.22 15.435 7.348 15.617 7.424C15.8 7.5 16.001 7.519 16.195 7.481C16.389 7.442 16.567 7.347 16.707 7.207C16.847 7.067 16.942 6.889 16.981 6.695C17.019 6.501 17 6.3 16.924 6.117C16.848 5.935 16.72 5.778 16.556 5.669C16.391 5.559 16.198 5.5 16 5.5C15.735 5.5 15.48 5.605 15.293 5.793C15.105 5.98 15 6.235 15 6.5ZM21 14.5C21 14.698 21.059 14.891 21.169 15.056C21.278 15.22 21.435 15.348 21.617 15.424C21.8 15.5 22.001 15.519 22.195 15.481C22.389 15.442 22.567 15.347 22.707 15.207C22.847 15.067 22.942 14.889 22.981 14.695C23.019 14.501 23 14.3 22.924 14.117C22.848 13.935 22.72 13.778 22.556 13.669C22.391 13.559 22.198 13.5 22 13.5C21.735 13.5 21.48 13.605 21.293 13.793C21.105 13.98 21 14.235 21 14.5ZM21 10.5C21 10.698 21.059 10.891 21.169 11.056C21.278 11.22 21.435 11.348 21.617 11.424C21.8 11.5 22.001 11.519 22.195 11.481C22.389 11.442 22.567 11.347 22.707 11.207C22.847 11.067 22.942 10.889 22.981 10.695C23.019 10.501 23 10.3 22.924 10.117C22.848 9.935 22.72 9.778 22.556 9.669C22.391 9.559 22.198 9.5 22 9.5C21.735 9.5 21.48 9.605 21.293 9.793C21.105 9.98 21 10.235 21 10.5ZM21 6.5C21 6.698 21.059 6.891 21.169 7.056C21.278 7.22 21.435 7.348 21.617 7.424C21.8 7.5 22.001 7.519 22.195 7.481C22.389 7.442 22.567 7.347 22.707 7.207C22.847 7.067 22.942 6.889 22.981 6.695C23.019 6.501 23 6.3 22.924 6.117C22.848 5.935 22.72 5.778 22.556 5.669C22.391 5.559 22.198 5.5 22 5.5C21.735 5.5 21.48 5.605 21.293 5.793C21.105 5.98 21 6.235 21 6.5Z" fill="#3C3C3C"/>
</svg>
